<svg width="385" height="64" viewBox="0 0 385 64" fill="none" xmlns="http://www.w3.org/2000/svg">
<g clip-path="url(#clip0_107_72543)">
<path d="M-0.000366211 6.52905V20.1492C-0.000366211 24.2975 5.05425 26.5099 8.14319 23.6061L22.8858 9.98594C26.1152 7.01301 24.0091 1.75854 19.5863 1.75854H4.84365C2.17593 1.75854 -0.000366211 3.90182 -0.000366211 6.52905Z" fill="white"/>
<path d="M69.7803 1.75854H55.0377C50.6851 1.75854 48.5088 7.01301 51.7381 9.98594L66.4808 23.6061C69.5697 26.4407 74.6244 24.2975 74.6244 20.1492V6.52905C74.6244 3.90182 72.4481 1.75854 69.7803 1.75854Z" fill="white"/>
<path d="M40.6472 35.0137L66.4819 58.9354C69.5709 61.7701 74.6255 59.6268 74.6255 55.4785V41.7201C74.6255 40.4065 74.0639 39.162 73.081 38.2632L40.6472 8.1883C38.7517 6.45986 35.8734 6.45986 33.9779 8.1883L1.5441 38.2632C0.561258 39.162 -0.000366211 40.4065 -0.000366211 41.7201V55.4785C-0.000366211 59.6268 5.05425 61.8392 8.14319 58.9354L33.9779 35.0137C35.8734 33.2853 38.7517 33.2853 40.6472 35.0137Z" fill="white"/>
</g>
<path d="M104.281 51.7159L95.8979 20.9122H104.541L109.314 41.6084H109.595L114.569 20.9122H123.052L128.106 41.4881H128.366L133.059 20.9122H141.682L133.32 51.7159H124.275L118.981 32.3432H118.6L113.305 51.7159H104.281ZM154.783 33.9075V51.7159H146.24V10.6442H154.542V26.3469H154.903C155.599 24.5287 156.722 23.1048 158.273 22.0753C159.823 21.0325 161.769 20.5111 164.108 20.5111C166.248 20.5111 168.113 20.979 169.704 21.9149C171.308 22.8374 172.551 24.1677 173.434 25.9057C174.33 27.6304 174.771 29.696 174.757 32.1026V51.7159H166.214V33.6267C166.228 31.7282 165.746 30.2509 164.77 29.1947C163.808 28.1385 162.457 27.6104 160.719 27.6104C159.556 27.6104 158.527 27.8577 157.631 28.3524C156.748 28.8471 156.053 29.569 155.545 30.5183C155.05 31.4542 154.796 32.5839 154.783 33.9075ZM181.481 51.7159V20.9122H190.024V51.7159H181.481ZM185.772 16.9413C184.502 16.9413 183.413 16.5202 182.503 15.6779C181.608 14.8223 181.16 13.7995 181.16 12.6096C181.16 11.433 181.608 10.4236 182.503 9.58133C183.413 8.72567 184.502 8.29784 185.772 8.29784C187.043 8.29784 188.125 8.72567 189.021 9.58133C189.93 10.4236 190.385 11.433 190.385 12.6096C190.385 13.7995 189.93 14.8223 189.021 15.6779C188.125 16.5202 187.043 16.9413 185.772 16.9413ZM213.252 20.9122V27.3296H194.702V20.9122H213.252ZM198.913 13.5321H207.456V42.2502C207.456 43.039 207.577 43.654 207.817 44.0952C208.058 44.523 208.392 44.8239 208.82 44.9977C209.261 45.1715 209.769 45.2584 210.344 45.2584C210.745 45.2584 211.146 45.225 211.548 45.1581C211.949 45.0779 212.256 45.0177 212.47 44.9776L213.814 51.3349C213.386 51.4686 212.784 51.6224 212.009 51.7962C211.233 51.9833 210.291 52.097 209.181 52.1371C207.122 52.2173 205.317 51.9432 203.766 51.3149C202.229 50.6865 201.032 49.7105 200.177 48.3869C199.321 47.0633 198.9 45.3921 198.913 43.3732V13.5321ZM232.525 52.3176C229.356 52.3176 226.629 51.6758 224.342 50.3923C222.069 49.0955 220.318 47.2638 219.088 44.8974C217.858 42.5176 217.243 39.7033 217.243 36.4544C217.243 33.2858 217.858 30.5049 219.088 28.1117C220.318 25.7186 222.049 23.8535 224.282 22.5165C226.528 21.1795 229.162 20.5111 232.184 20.5111C234.216 20.5111 236.108 20.8386 237.859 21.4937C239.624 22.1355 241.161 23.1048 242.472 24.4016C243.795 25.6985 244.825 27.3296 245.56 29.295C246.295 31.2469 246.663 33.5331 246.663 36.1536V38.5H220.652V33.2056H238.621C238.621 31.9756 238.354 30.8859 237.819 29.9367C237.284 28.9874 236.542 28.2454 235.593 27.7106C234.657 27.1625 233.567 26.8884 232.324 26.8884C231.027 26.8884 229.877 27.1892 228.875 27.7909C227.885 28.3791 227.11 29.1746 226.548 30.1774C225.987 31.1667 225.699 32.2697 225.686 33.4864V38.52C225.686 40.0442 225.967 41.3611 226.528 42.4708C227.103 43.5805 227.912 44.4361 228.955 45.0378C229.998 45.6394 231.234 45.9402 232.665 45.9402C233.614 45.9402 234.483 45.8065 235.272 45.5391C236.061 45.2717 236.736 44.8707 237.298 44.3359C237.859 43.8011 238.287 43.146 238.581 42.3705L246.483 42.8919C246.081 44.7904 245.259 46.4483 244.016 47.8655C242.786 49.2693 241.195 50.3656 239.243 51.1544C237.304 51.9299 235.065 52.3176 232.525 52.3176ZM252.238 63.2674V20.9122H260.661V26.0862H261.042C261.416 25.2573 261.958 24.415 262.667 23.5594C263.389 22.6903 264.324 21.9684 265.474 21.3935C266.637 20.8052 268.081 20.5111 269.806 20.5111C272.052 20.5111 274.124 21.0993 276.023 22.2759C277.921 23.439 279.439 25.1971 280.575 27.5502C281.712 29.8899 282.28 32.8246 282.28 36.3542C282.28 39.7902 281.725 42.6914 280.615 45.0578C279.519 47.4109 278.022 49.1958 276.123 50.4124C274.238 51.6157 272.126 52.2173 269.786 52.2173C268.128 52.2173 266.718 51.9432 265.554 51.3951C264.405 50.8469 263.462 50.1584 262.727 49.3295C261.991 48.4872 261.43 47.6382 261.042 46.7825H260.781V63.2674H252.238ZM260.601 36.314C260.601 38.1457 260.855 39.7434 261.363 41.1071C261.871 42.4708 262.606 43.5337 263.569 44.2958C264.532 45.0445 265.701 45.4188 267.079 45.4188C268.469 45.4188 269.646 45.0378 270.608 44.2757C271.571 43.5003 272.299 42.4307 272.794 41.067C273.302 39.6899 273.556 38.1056 273.556 36.314C273.556 34.5359 273.309 32.9716 272.814 31.6213C272.319 30.2709 271.591 29.2147 270.628 28.4527C269.666 27.6906 268.482 27.3096 267.079 27.3096C265.688 27.3096 264.512 27.6772 263.549 28.4126C262.6 29.1479 261.871 30.1907 261.363 31.5411C260.855 32.8914 260.601 34.4824 260.601 36.314ZM296.759 52.2975C294.794 52.2975 293.043 51.9566 291.505 51.2747C289.967 50.5795 288.751 49.5567 287.855 48.2064C286.973 46.8427 286.531 45.1447 286.531 43.1125C286.531 41.4012 286.846 39.964 287.474 38.8008C288.102 37.6376 288.958 36.7018 290.041 35.9932C291.124 35.2846 292.354 34.7498 293.731 34.3888C295.122 34.0278 296.579 33.7738 298.103 33.6267C299.894 33.4396 301.338 33.2658 302.435 33.1053C303.531 32.9315 304.327 32.6775 304.821 32.3432C305.316 32.009 305.563 31.5143 305.563 30.8592V30.7389C305.563 29.4688 305.162 28.4861 304.36 27.7909C303.571 27.0956 302.448 26.748 300.991 26.748C299.453 26.748 298.23 27.089 297.321 27.7708C296.412 28.4393 295.81 29.2816 295.516 30.2977L287.614 29.6559C288.016 27.7842 288.804 26.1664 289.981 24.8027C291.157 23.4257 292.675 22.3694 294.533 21.6341C296.405 20.8854 298.571 20.5111 301.031 20.5111C302.742 20.5111 304.38 20.7116 305.944 21.1127C307.522 21.5138 308.919 22.1355 310.136 22.9778C311.366 23.8201 312.335 24.903 313.044 26.2266C313.752 27.5368 314.106 29.1078 314.106 30.9394V51.7159H306.004V47.4443H305.764C305.269 48.4069 304.607 49.2559 303.778 49.9913C302.949 50.7132 301.953 51.2814 300.79 51.6959C299.627 52.097 298.283 52.2975 296.759 52.2975ZM299.206 46.4015C300.463 46.4015 301.572 46.1541 302.535 45.6595C303.498 45.1514 304.253 44.4696 304.801 43.6139C305.349 42.7582 305.623 41.7889 305.623 40.706V37.4371C305.356 37.6109 304.988 37.7713 304.52 37.9184C304.066 38.0521 303.551 38.1791 302.976 38.2994C302.401 38.4064 301.826 38.5067 301.252 38.6003C300.677 38.6805 300.155 38.754 299.687 38.8209C298.685 38.9679 297.809 39.2019 297.06 39.5228C296.311 39.8436 295.73 40.2782 295.315 40.8263C294.901 41.3611 294.694 42.0296 294.694 42.8318C294.694 43.9949 295.115 44.884 295.957 45.499C296.813 46.1007 297.896 46.4015 299.206 46.4015ZM334.652 52.3176C331.497 52.3176 328.783 51.6491 326.51 50.3121C324.251 48.9618 322.513 47.09 321.296 44.6968C320.093 42.3037 319.491 39.5495 319.491 36.4344C319.491 33.2791 320.099 30.5116 321.316 28.1318C322.546 25.7386 324.291 23.8735 326.55 22.5366C328.81 21.1862 331.497 20.5111 334.612 20.5111C337.3 20.5111 339.653 20.9991 341.671 21.975C343.69 22.951 345.288 24.3214 346.465 26.0862C347.641 27.851 348.289 29.9233 348.41 32.3031H340.348C340.121 30.7656 339.519 29.5289 338.543 28.593C337.58 27.6438 336.317 27.1692 334.753 27.1692C333.429 27.1692 332.273 27.5302 331.283 28.2521C330.307 28.9607 329.545 29.9969 328.997 31.3606C328.449 32.7243 328.175 34.3754 328.175 36.314C328.175 38.2794 328.442 39.9506 328.977 41.3277C329.525 42.7048 330.294 43.7543 331.283 44.4762C332.273 45.1982 333.429 45.5592 334.753 45.5592C335.729 45.5592 336.604 45.3586 337.38 44.9576C338.169 44.5565 338.817 43.9749 339.325 43.2128C339.847 42.4374 340.187 41.5082 340.348 40.4252H348.41C348.276 42.7783 347.634 44.8506 346.485 46.6421C345.348 48.4203 343.777 49.8108 341.772 50.8135C339.766 51.8162 337.393 52.3176 334.652 52.3176ZM367.918 52.3176C364.749 52.3176 362.022 51.6758 359.736 50.3923C357.463 49.0955 355.711 47.2638 354.481 44.8974C353.251 42.5176 352.636 39.7033 352.636 36.4544C352.636 33.2858 353.251 30.5049 354.481 28.1117C355.711 25.7186 357.443 23.8535 359.675 22.5165C361.922 21.1795 364.555 20.5111 367.577 20.5111C369.609 20.5111 371.501 20.8386 373.252 21.4937C375.017 22.1355 376.555 23.1048 377.865 24.4016C379.189 25.6985 380.218 27.3296 380.953 29.295C381.689 31.2469 382.056 33.5331 382.056 36.1536V38.5H356.046V33.2056H374.014C374.014 31.9756 373.747 30.8859 373.212 29.9367C372.677 28.9874 371.935 28.2454 370.986 27.7106C370.05 27.1625 368.961 26.8884 367.717 26.8884C366.42 26.8884 365.271 27.1892 364.268 27.7909C363.279 28.3791 362.503 29.1746 361.942 30.1774C361.38 31.1667 361.093 32.2697 361.079 33.4864V38.52C361.079 40.0442 361.36 41.3611 361.922 42.4708C362.496 43.5805 363.305 44.4361 364.348 45.0378C365.391 45.6394 366.628 45.9402 368.058 45.9402C369.007 45.9402 369.877 45.8065 370.665 45.5391C371.454 45.2717 372.129 44.8707 372.691 44.3359C373.252 43.8011 373.68 43.146 373.974 42.3705L381.876 42.8919C381.475 44.7904 380.652 46.4483 379.409 47.8655C378.179 49.2693 376.588 50.3656 374.636 51.1544C372.698 51.9299 370.458 52.3176 367.918 52.3176Z" fill="white"/>
<defs>
<clipPath id="clip0_107_72543">
<rect width="74.6259" height="58.4905" fill="white" transform="translate(0 1.7583)"/>
</clipPath>
</defs>
</svg>
